<svg width="520" height="126" viewBox="0 0 520 126" fill="none" xmlns="http://www.w3.org/2000/svg">
<rect x="14.6518" y="14" width="491.665" height="94" stroke="#FFDB5D" stroke-width="8"/>
<path d="M19.2402 108.091C19.2402 111.914 15.9749 115.273 11.6201 115.273C7.2653 115.273 4 111.914 4 108.091C4 104.268 7.26529 100.909 11.6201 100.909C15.9749 100.909 19.2402 104.268 19.2402 108.091Z" fill="white" stroke="#FFDB5D" stroke-width="8"/>
<path d="M516 114.182C516 118.005 512.735 121.364 508.38 121.364C504.025 121.364 500.76 118.005 500.76 114.182C500.76 110.359 504.025 107 508.38 107C512.735 107 516 110.359 516 114.182Z" fill="white" stroke="#FFDB5D" stroke-width="8"/>
<path d="M19.2402 11.1818C19.2402 15.0047 15.9749 18.3636 11.6201 18.3636C7.2653 18.3636 4 15.0047 4 11.1818C4 7.35897 7.26529 4 11.6201 4C15.9749 4 19.2402 7.35897 19.2402 11.1818Z" fill="white" stroke="#FFDB5D" stroke-width="8"/>
<path d="M516 15.1818C516 19.0047 512.735 22.3636 508.38 22.3636C504.025 22.3636 500.76 19.0047 500.76 15.1818C500.76 11.359 504.025 8 508.38 8C512.735 8 516 11.359 516 15.1818Z" fill="white" stroke="#FFDB5D" stroke-width="8"/>
</svg>
