<svg width="520" height="126" viewBox="0 0 520 126" fill="none" xmlns="http://www.w3.org/2000/svg">
<rect x="14.6518" y="14" width="491.665" height="94" stroke="#FFDB5D" stroke-width="8"/>
<path d="M19.2402 108.091C19.2402 111.914 15.9749 115.273 11.6201 115.273C7.2653 115.273 4 111.914 4 108.091C4 104.268 7.26529 100.909 11.6201 100.909C15.9749 100.909 19.2402 104.268 19.2402 108.091Z" fill="white" stroke="#FFDB5D" stroke-width="8"/>
<path d="M516 114.182C516 118.005 512.735 121.364 508.38 121.364C504.025 121.364 500.76 118.005 500.76 114.182C500.76 110.359 504.025 107 508.38 107C512.735 107 516 110.359 516 114.182Z" fill="white" stroke="#FFDB5D" stroke-width="8"/>
<path d="M19.2402 11.1818C19.2402 15.0047 15.9749 18.3636 11.6201 18.3636C7.2653 18.3636 4 15.0047 4 11.1818C4 7.35897 7.26529 4 11.6201 4C15.9749 4 19.2402 7.35897 19.2402 11.1818Z" fill="white" stroke="#FFDB5D" stroke-width="8"/>
<path d="M516 15.1818C516 19.0047 512.735 22.3636 508.38 22.3636C504.025 22.3636 500.76 19.0047 500.76 15.1818C500.76 11.359 504.025 8 508.38 8C512.735 8 516 11.359 516 15.1818Z" fill="white" stroke="#FFDB5D" stroke-width="8"/>
<path d="M75.8111 38.3636H83.7159V66.8722C83.7159 69.9972 82.9773 72.7457 81.5 75.1179C80.0369 77.4901 77.9773 79.3437 75.321 80.679C72.6648 82 69.5611 82.6605 66.0099 82.6605C62.4446 82.6605 59.3338 82 56.6776 80.679C54.0213 79.3437 51.9616 77.4901 50.4986 75.1179C49.0355 72.7457 48.304 69.9972 48.304 66.8722V38.3636H56.2088V66.2116C56.2088 68.0298 56.6065 69.6491 57.402 71.0696C58.2116 72.4901 59.348 73.6051 60.8111 74.4148C62.2741 75.2102 64.0071 75.608 66.0099 75.608C68.0128 75.608 69.7457 75.2102 71.2088 74.4148C72.6861 73.6051 73.8224 72.4901 74.6179 71.0696C75.4134 69.6491 75.8111 68.0298 75.8111 66.2116V38.3636ZM118.033 57.9233L111.002 58.6903C110.803 57.9801 110.455 57.3125 109.958 56.6875C109.475 56.0625 108.822 55.5582 107.998 55.1747C107.174 54.7912 106.166 54.5994 104.972 54.5994C103.367 54.5994 102.018 54.9474 100.924 55.6435C99.8445 56.3395 99.3119 57.2415 99.3261 58.3494C99.3119 59.3011 99.6599 60.0753 100.37 60.6719C101.095 61.2685 102.288 61.7585 103.95 62.142L109.532 63.3352C112.629 64.0028 114.93 65.0611 116.435 66.5099C117.955 67.9588 118.722 69.8551 118.737 72.1989C118.722 74.2585 118.119 76.0767 116.925 77.6534C115.747 79.2159 114.106 80.4375 112.004 81.3182C109.901 82.1989 107.487 82.6392 104.759 82.6392C100.754 82.6392 97.5292 81.8011 95.086 80.125C92.6428 78.4347 91.1869 76.0838 90.7181 73.0724L98.2394 72.348C98.5803 73.8253 99.3048 74.9403 100.413 75.6932C101.521 76.446 102.962 76.8224 104.738 76.8224C106.57 76.8224 108.041 76.446 109.149 75.6932C110.271 74.9403 110.832 74.0099 110.832 72.902C110.832 71.9645 110.47 71.1903 109.745 70.5795C109.035 69.9687 107.927 69.5 106.421 69.1733L100.839 68.0014C97.6996 67.348 95.3772 66.2472 93.8715 64.6989C92.3658 63.1364 91.6201 61.1619 91.6343 58.7756C91.6201 56.7585 92.167 55.0114 93.2749 53.5341C94.3971 52.0426 95.9525 50.892 97.9411 50.0824C99.944 49.2585 102.252 48.8466 104.866 48.8466C108.701 48.8466 111.72 49.6634 113.921 51.2969C116.137 52.9304 117.508 55.1392 118.033 57.9233ZM139.785 82.6392C136.504 82.6392 133.67 81.9574 131.284 80.5938C128.912 79.2159 127.086 77.2699 125.808 74.7557C124.53 72.2273 123.89 69.2514 123.89 65.8281C123.89 62.4616 124.53 59.5071 125.808 56.9645C127.101 54.4077 128.905 52.419 131.22 50.9986C133.535 49.5639 136.255 48.8466 139.38 48.8466C141.398 48.8466 143.301 49.1733 145.091 49.8267C146.895 50.4659 148.486 51.4602 149.863 52.8097C151.255 54.1591 152.349 55.8778 153.145 57.9659C153.94 60.0398 154.338 62.5114 154.338 65.3807V67.7457H127.513V62.5469H146.944C146.93 61.0696 146.611 59.7557 145.986 58.6051C145.361 57.4403 144.487 56.5241 143.365 55.8565C142.257 55.1889 140.964 54.8551 139.487 54.8551C137.91 54.8551 136.525 55.2386 135.332 56.0057C134.139 56.7585 133.209 57.7528 132.541 58.9886C131.888 60.2102 131.554 61.5526 131.54 63.0156V67.554C131.54 69.4574 131.888 71.0909 132.584 72.4545C133.28 73.804 134.253 74.8409 135.503 75.5653C136.753 76.2756 138.216 76.6307 139.892 76.6307C141.014 76.6307 142.03 76.4744 142.939 76.1619C143.848 75.8352 144.636 75.3594 145.304 74.7344C145.971 74.1094 146.476 73.3352 146.817 72.4119L154.018 73.2216C153.564 75.125 152.697 76.7869 151.419 78.2074C150.155 79.6136 148.535 80.7074 146.561 81.4886C144.586 82.2557 142.328 82.6392 139.785 82.6392ZM161.063 82V49.2727H168.542V54.7273H168.883C169.479 52.8381 170.502 51.3821 171.951 50.3594C173.414 49.3224 175.083 48.804 176.958 48.804C177.384 48.804 177.86 48.8253 178.386 48.8679C178.925 48.8963 179.373 48.946 179.728 49.017V56.1122C179.401 55.9986 178.883 55.8991 178.172 55.8139C177.476 55.7145 176.802 55.6648 176.148 55.6648C174.742 55.6648 173.478 55.9702 172.356 56.581C171.248 57.1776 170.374 58.0085 169.735 59.0739C169.096 60.1392 168.776 61.3679 168.776 62.7599V82H161.063ZM203.424 60.6506V67H183.779V60.6506H203.424ZM228.313 49.2727V55.2386H208.967V49.2727H228.313ZM213.803 82V46.1832C213.803 43.9815 214.258 42.1491 215.167 40.6861C216.09 39.223 217.326 38.1293 218.874 37.4048C220.423 36.6804 222.141 36.3182 224.031 36.3182C225.366 36.3182 226.552 36.4247 227.589 36.6378C228.626 36.8509 229.393 37.0426 229.89 37.2131L228.356 43.179C228.029 43.0795 227.617 42.9801 227.12 42.8807C226.623 42.767 226.069 42.7102 225.458 42.7102C224.023 42.7102 223.008 43.0582 222.411 43.7543C221.829 44.4361 221.538 45.4162 221.538 46.6946V82H213.803ZM234.554 82V49.2727H242.032V54.7273H242.373C242.97 52.8381 243.993 51.3821 245.441 50.3594C246.905 49.3224 248.574 48.804 250.449 48.804C250.875 48.804 251.351 48.8253 251.876 48.8679C252.416 48.8963 252.863 48.946 253.218 49.017V56.1122C252.892 55.9986 252.373 55.8991 251.663 55.8139C250.967 55.7145 250.292 55.6648 249.639 55.6648C248.233 55.6648 246.968 55.9702 245.846 56.581C244.738 57.1776 243.865 58.0085 243.226 59.0739C242.586 60.1392 242.267 61.3679 242.267 62.7599V82H234.554ZM258.543 82V49.2727H266.256V82H258.543ZM262.421 44.6278C261.199 44.6278 260.148 44.223 259.267 43.4134C258.386 42.5895 257.946 41.6023 257.946 40.4517C257.946 39.2869 258.386 38.2997 259.267 37.4901C260.148 36.6662 261.199 36.2543 262.421 36.2543C263.656 36.2543 264.708 36.6662 265.574 37.4901C266.455 38.2997 266.895 39.2869 266.895 40.4517C266.895 41.6023 266.455 42.5895 265.574 43.4134C264.708 44.223 263.656 44.6278 262.421 44.6278ZM288.876 82.6392C285.595 82.6392 282.761 81.9574 280.375 80.5938C278.002 79.2159 276.177 77.2699 274.899 74.7557C273.62 72.2273 272.981 69.2514 272.981 65.8281C272.981 62.4616 273.62 59.5071 274.899 56.9645C276.191 54.4077 277.995 52.419 280.311 50.9986C282.626 49.5639 285.346 48.8466 288.471 48.8466C290.488 48.8466 292.392 49.1733 294.181 49.8267C295.985 50.4659 297.576 51.4602 298.954 52.8097C300.346 54.1591 301.44 55.8778 302.235 57.9659C303.031 60.0398 303.428 62.5114 303.428 65.3807V67.7457H276.603V62.5469H296.035C296.021 61.0696 295.701 59.7557 295.076 58.6051C294.451 57.4403 293.578 56.5241 292.455 55.8565C291.348 55.1889 290.055 54.8551 288.578 54.8551C287.001 54.8551 285.616 55.2386 284.423 56.0057C283.23 56.7585 282.299 57.7528 281.632 58.9886C280.978 60.2102 280.644 61.5526 280.63 63.0156V67.554C280.63 69.4574 280.978 71.0909 281.674 72.4545C282.37 73.804 283.343 74.8409 284.593 75.5653C285.843 76.2756 287.306 76.6307 288.982 76.6307C290.105 76.6307 291.12 76.4744 292.029 76.1619C292.938 75.8352 293.727 75.3594 294.394 74.7344C295.062 74.1094 295.566 73.3352 295.907 72.4119L303.109 73.2216C302.654 75.125 301.788 76.7869 300.509 78.2074C299.245 79.6136 297.626 80.7074 295.651 81.4886C293.677 82.2557 291.419 82.6392 288.876 82.6392ZM317.867 62.8239V82H310.154V49.2727H317.526V54.8338H317.909C318.662 53.0014 319.862 51.5455 321.51 50.4659C323.172 49.3864 325.225 48.8466 327.668 48.8466C329.926 48.8466 331.894 49.3295 333.57 50.2955C335.26 51.2614 336.567 52.6605 337.49 54.4929C338.428 56.3253 338.889 58.5483 338.875 61.1619V82H331.162V62.3551C331.162 60.1676 330.594 58.456 329.458 57.2202C328.335 55.9844 326.78 55.3665 324.791 55.3665C323.442 55.3665 322.242 55.6648 321.191 56.2614C320.154 56.8437 319.337 57.6889 318.74 58.7969C318.158 59.9048 317.867 61.2472 317.867 62.8239ZM359.061 82.5753C356.49 82.5753 354.189 81.9148 352.158 80.5938C350.126 79.2727 348.521 77.3551 347.342 74.8409C346.163 72.3267 345.574 69.2727 345.574 65.679C345.574 62.0426 346.17 58.9744 347.364 56.4744C348.571 53.9602 350.197 52.0639 352.243 50.7855C354.288 49.4929 356.568 48.8466 359.082 48.8466C361 48.8466 362.577 49.1733 363.812 49.8267C365.048 50.4659 366.028 51.2401 366.753 52.1491C367.477 53.044 368.038 53.8892 368.436 54.6847H368.756V38.3636H376.49V82H368.905V76.8438H368.436C368.038 77.6392 367.463 78.4844 366.71 79.3793C365.957 80.2599 364.963 81.0128 363.727 81.6378C362.491 82.2628 360.936 82.5753 359.061 82.5753ZM361.213 76.2472C362.847 76.2472 364.239 75.8068 365.389 74.9261C366.54 74.0312 367.413 72.7884 368.01 71.1974C368.607 69.6065 368.905 67.7528 368.905 65.6364C368.905 63.5199 368.607 61.6804 368.01 60.1179C367.428 58.5554 366.561 57.3409 365.411 56.4744C364.274 55.608 362.875 55.1747 361.213 55.1747C359.494 55.1747 358.06 55.6222 356.909 56.517C355.759 57.4119 354.892 58.6477 354.31 60.2244C353.727 61.8011 353.436 63.6051 353.436 65.6364C353.436 67.6818 353.727 69.5071 354.31 71.1122C354.906 72.7031 355.78 73.9602 356.93 74.8835C358.095 75.7926 359.523 76.2472 361.213 76.2472ZM392.622 38.3636V82H384.909V38.3636H392.622ZM405.548 94.2727C404.497 94.2727 403.524 94.1875 402.629 94.017C401.748 93.8608 401.045 93.6761 400.519 93.4631L402.309 87.4545C403.431 87.7813 404.433 87.9375 405.313 87.9233C406.194 87.9091 406.968 87.6321 407.636 87.0923C408.318 86.5668 408.893 85.6861 409.362 84.4503L410.022 82.6818L398.154 49.2727H406.336L413.879 73.9886H414.22L421.784 49.2727H429.987L416.883 85.9631C416.272 87.696 415.462 89.1804 414.454 90.4162C413.445 91.6662 412.21 92.6179 410.747 93.2713C409.298 93.9389 407.565 94.2727 405.548 94.2727ZM457.979 69.1733V68.6193C457.993 66.0483 458.235 64.0028 458.703 62.483C459.186 60.9631 459.868 59.7415 460.749 58.8182C461.63 57.8807 462.702 57.0213 463.966 56.2401C464.833 55.7003 465.607 55.1108 466.289 54.4716C466.985 53.8182 467.532 53.0937 467.929 52.2983C468.327 51.4886 468.526 50.5866 468.526 49.5923C468.526 48.4702 468.263 47.4972 467.737 46.6733C467.212 45.8494 466.502 45.2102 465.607 44.7557C464.726 44.3011 463.739 44.0739 462.645 44.0739C461.637 44.0739 460.678 44.294 459.769 44.7344C458.874 45.1605 458.128 45.8139 457.532 46.6946C456.949 47.5611 456.622 48.6619 456.551 49.9972H448.966C449.037 47.2983 449.691 45.0398 450.926 43.2216C452.176 41.4034 453.824 40.0398 455.87 39.1307C457.929 38.2216 460.202 37.767 462.688 37.767C465.401 37.767 467.787 38.2429 469.847 39.1946C471.921 40.1463 473.533 41.5028 474.684 43.2642C475.848 45.0114 476.431 47.0852 476.431 49.4858C476.431 51.1051 476.168 52.554 475.642 53.8324C475.131 55.1108 474.399 56.2472 473.448 57.2415C472.496 58.2358 471.367 59.1236 470.06 59.9048C468.909 60.6151 467.965 61.3537 467.226 62.1207C466.502 62.8878 465.962 63.7898 465.607 64.8267C465.266 65.8494 465.088 67.1136 465.074 68.6193V69.1733H457.979ZM461.686 82.4688C460.408 82.4688 459.307 82.0142 458.384 81.1051C457.46 80.196 456.999 79.0881 456.999 77.7812C456.999 76.5028 457.46 75.4091 458.384 74.5C459.307 73.5909 460.408 73.1364 461.686 73.1364C462.951 73.1364 464.044 73.5909 464.968 74.5C465.905 75.4091 466.374 76.5028 466.374 77.7812C466.374 78.6477 466.154 79.4361 465.713 80.1463C465.287 80.8565 464.719 81.4247 464.009 81.8509C463.313 82.2628 462.539 82.4688 461.686 82.4688Z" fill="#66B2FF"/>
</svg>
